<svg width="546" height="636" viewBox="0 0 546 636" fill="none" xmlns="http://www.w3.org/2000/svg">
<path fill-rule="evenodd" clip-rule="evenodd" d="M117.856 635.973V380.108C146.963 400.301 214.497 417.722 297.787 405.616C298.928 405.45 300.065 405.279 301.198 405.104L373.539 493.557V386.022C417.638 369.075 449.057 345.966 463.539 327.047V635.842L373.539 635.718L207.856 433.134V635.973H117.856Z" fill="#FF7A00"/>
<path fill-rule="evenodd" clip-rule="evenodd" d="M275.05 70.3727C276.467 80.1231 271.947 89.3662 264.222 94.4359L352.092 228.374L464.383 109.428C460.54 105.771 457.85 100.846 457.027 95.1876C455.078 81.7742 464.365 69.3207 477.772 67.3721C491.179 65.4234 503.628 74.7174 505.578 88.1308C507.527 101.544 498.239 113.998 484.832 115.946C483.219 116.181 481.62 116.252 480.051 116.174L471.376 289.733C475.061 315.083 406.169 374.717 296.787 390.616C187.404 406.514 105.196 371.488 101.511 346.137L43.4789 181.564C42.4884 181.839 41.4695 182.054 40.4256 182.206C27.0188 184.155 14.5699 174.861 12.6203 161.447C10.6706 148.034 19.9585 135.58 33.3653 133.632C46.7722 131.683 59.221 140.977 61.1707 154.39C61.9917 160.039 60.8199 165.517 58.1869 170.113L197.553 250.929L243.691 97.4027C234.861 94.7312 227.915 87.1655 226.5 77.4295C224.55 64.0161 233.838 51.5627 247.245 49.614C260.652 47.6653 273.101 56.9593 275.05 70.3727Z" fill="#FF7A00"/>
<path d="M303.569 340.422L279.68 343.894L270.173 278.488L268.843 267.708L267.521 255.9C264.129 260.446 261.75 263.449 260.384 264.911L248.912 277.236L235.303 264.53L267.503 230.245L287.14 227.391L303.569 340.422Z" fill="white"/>
</svg>
